<svg width="131" height="25" viewBox="0 0 131 25" fill="none" xmlns="http://www.w3.org/2000/svg">
<path d="M65.2466 0.897862V10.8409C65.2466 11.0095 65.1624 11.077 64.9933 11.077H63.8271C63.6413 11.077 63.5737 11.0095 63.5737 10.8581V2.31315C63.5737 2.17897 63.5233 2.11075 63.3707 2.11075H60.0578C59.8886 2.11075 59.8548 2.17822 59.8548 2.31315V10.8409C59.8548 11.0095 59.7706 11.077 59.6014 11.077H58.4352C58.2661 11.077 58.1646 11.0095 58.1646 10.8581V0.914352C58.1646 0.762927 58.2495 0.678223 58.4352 0.678223H64.994C65.1617 0.678223 65.2466 0.76293 65.2466 0.897862Z" fill="white"/>
<path d="M70.8256 6.81314H69.3722C69.2368 6.81314 69.203 6.88061 69.203 6.9983V10.8409C69.203 10.9923 69.1188 11.077 68.9496 11.077H67.8C67.6308 11.077 67.5293 10.9923 67.5293 10.8409V0.897862C67.5293 0.746438 67.6308 0.678223 67.8 0.678223H70.809C72.8038 0.678223 74.0204 1.99306 74.0204 3.77942C74.0204 5.48181 72.6677 6.81314 70.8256 6.81314ZM70.8083 2.12799H69.388C69.2361 2.12799 69.185 2.19546 69.185 2.31315V5.17821C69.185 5.31315 69.2353 5.38061 69.3707 5.38061H70.8075C71.7376 5.38061 72.3624 4.72319 72.3624 3.76217C72.3639 2.95408 71.8399 2.12799 70.8083 2.12799Z" fill="white"/>
<path d="M78.6194 11.1783C76.7261 11.1783 75.272 10.1161 75.272 8.19552V3.50961C75.272 1.65579 76.7254 0.526855 78.6021 0.526855C80.4458 0.526855 81.9496 1.60556 81.9496 3.50961V8.19552C81.9503 10.0658 80.53 11.1783 78.6194 11.1783ZM80.2758 3.52686C80.2758 2.66704 79.6503 1.99312 78.6194 1.99312C77.5713 1.99312 76.9292 2.66704 76.9292 3.52686V8.17828C76.9292 9.05459 77.5382 9.71201 78.6021 9.71201C79.6337 9.71201 80.2758 9.07183 80.2758 8.17828V3.52686Z" fill="white"/>
<path d="M88.8975 10.032C88.7787 10.032 88.7457 10.0995 88.7457 10.2007V10.8581C88.7457 11.0268 88.678 11.077 88.5088 11.077H87.3592C87.2073 11.077 87.1404 11.0268 87.1404 10.8746V10.1835C87.1404 10.0995 87.0727 10.032 86.9539 10.032C85.2298 9.91434 83.9448 8.71794 83.9448 7.0995V4.3019C83.9448 2.68346 85.2133 1.50356 86.9885 1.36937C87.09 1.36937 87.1231 1.33564 87.1231 1.26818V0.897862C87.1231 0.746438 87.2073 0.678223 87.3592 0.678223H88.5088C88.6607 0.678223 88.7457 0.728444 88.7457 0.880618V1.25093C88.7457 1.3184 88.7622 1.36937 88.8802 1.36937C90.7066 1.48707 91.9735 2.65048 91.9735 4.28541V7.0995C91.9743 8.65047 90.5878 9.87986 88.8975 10.032ZM87.1396 2.88586C87.1396 2.8019 87.0892 2.76817 87.0035 2.76817C86.0238 2.8019 85.5163 3.49306 85.5163 4.20071V7.03203C85.5163 7.87461 85.9892 8.48106 87.0035 8.5995C87.105 8.5995 87.1396 8.56577 87.1396 8.48106V2.88586ZM90.4021 4.35288C90.4021 3.57777 90.1652 2.81915 88.8472 2.76817C88.7622 2.76817 88.7457 2.80191 88.7457 2.86937V8.48181C88.7457 8.56652 88.796 8.60025 88.8802 8.60025C89.7427 8.49905 90.4021 7.95932 90.4021 7.15048V4.35288Z" fill="white"/>
<path d="M65.285 13.2555V23.1985C65.285 23.3672 65.2008 23.4346 65.0316 23.4346H63.8647C63.6789 23.4346 63.6113 23.3672 63.6113 23.2158V14.6708C63.6113 14.5366 63.5609 14.4684 63.4083 14.4684H60.0954C59.9262 14.4684 59.8924 14.5359 59.8924 14.6708V23.1985C59.8924 23.3672 59.8082 23.4346 59.639 23.4346H58.4728C58.3037 23.4346 58.2021 23.3672 58.2021 23.2158V13.272C58.2021 13.1206 58.2864 13.0359 58.4728 13.0359H65.0316C65.2008 13.0359 65.285 13.1206 65.285 13.2555Z" fill="white"/>
<path d="M73.3992 21.9684C73.5353 21.9684 73.6353 22.0531 73.6353 22.2045V23.182C73.6353 23.3507 73.5683 23.4346 73.3992 23.4346H67.7871C67.6352 23.4346 67.5337 23.3499 67.5337 23.1985V13.272C67.5337 13.1206 67.6179 13.0359 67.7871 13.0359H73.315C73.4496 13.0359 73.5683 13.1034 73.5683 13.272V14.233C73.5683 14.3845 73.4841 14.4857 73.3323 14.4857H69.3931C69.2412 14.4857 69.1901 14.5359 69.1901 14.6543V17.0981C69.1901 17.2668 69.2405 17.3177 69.3931 17.3177H72.6383C72.8074 17.3177 72.8759 17.4017 72.8759 17.5704V18.5306C72.8759 18.682 72.8082 18.7668 72.6556 18.7668H69.3931C69.2412 18.7668 69.1901 18.8342 69.1901 18.9692V21.7667C69.1901 21.9182 69.2578 21.9691 69.4097 21.9691H73.3992V21.9684Z" fill="white"/>
<path d="M78.5397 19.1708H77.0848C76.9502 19.1708 76.9164 19.2383 76.9164 19.356V23.1985C76.9164 23.3499 76.8322 23.4346 76.663 23.4346H75.5134C75.3442 23.4346 75.2427 23.3499 75.2427 23.1985V13.2555C75.2427 13.1041 75.3442 13.0359 75.5134 13.0359H78.5224C80.5165 13.0359 81.7338 14.3507 81.7338 16.1371C81.7345 17.8395 80.3819 19.1708 78.5397 19.1708ZM78.5224 14.4857H77.1021C76.9502 14.4857 76.8991 14.5531 76.8991 14.6708V17.5359C76.8991 17.6708 76.9495 17.7383 77.0848 17.7383H78.5224C79.4518 17.7383 80.0774 17.0809 80.0774 16.1198C80.0781 15.3117 79.5533 14.4857 78.5224 14.4857Z" fill="white"/>
<path d="M89.0552 21.9684C89.1898 21.9684 89.2913 22.0531 89.2913 22.2045V23.182C89.2913 23.3507 89.2237 23.4346 89.0552 23.4346H83.4424C83.2905 23.4346 83.189 23.3499 83.189 23.1985V13.272C83.189 13.1206 83.2739 13.0359 83.4424 13.0359H88.9703C89.1064 13.0359 89.2237 13.1034 89.2237 13.272V14.233C89.2237 14.3845 89.1394 14.4857 88.9876 14.4857H85.0484C84.8965 14.4857 84.8454 14.5359 84.8454 14.6543V17.0981C84.8454 17.2668 84.8958 17.3177 85.0484 17.3177H88.2943C88.4627 17.3177 88.5304 17.4017 88.5304 17.5704V18.5306C88.5304 18.682 88.4627 18.7668 88.3101 18.7668H85.0476C84.8958 18.7668 84.8446 18.8342 84.8446 18.9692V21.7667C84.8446 21.9182 84.9123 21.9691 85.0649 21.9691H89.0552V21.9684Z" fill="white"/>
<path d="M94.194 19.1708H92.7406C92.606 19.1708 92.5714 19.2383 92.5714 19.356V23.1985C92.5714 23.3499 92.4872 23.4346 92.318 23.4346H91.1684C90.9999 23.4346 90.8984 23.3499 90.8984 23.1985V13.2555C90.8984 13.1041 90.9999 13.0359 91.1684 13.0359H94.1775C96.173 13.0359 97.3903 14.3507 97.3903 16.1371C97.3895 17.8395 96.0361 19.1708 94.194 19.1708ZM94.1767 14.4857H92.7579C92.606 14.4857 92.5549 14.5531 92.5549 14.6708V17.5359C92.5549 17.6708 92.6052 17.7383 92.7406 17.7383H94.1767C95.1068 17.7383 95.7331 17.0809 95.7331 16.1198C95.7331 15.3117 95.2083 14.4857 94.1767 14.4857Z" fill="white"/>
<path d="M101.987 23.5357C100.094 23.5357 98.6401 22.4735 98.6401 20.5529V15.867C98.6401 14.0132 100.094 12.8843 101.97 12.8843C103.812 12.8843 105.317 13.963 105.317 15.867V20.5529C105.318 22.4232 103.897 23.5357 101.987 23.5357ZM103.643 15.8843C103.643 15.0245 103.018 14.3505 101.987 14.3505C100.939 14.3505 100.297 15.0245 100.297 15.8843V20.5357C100.297 21.412 100.906 22.0694 101.97 22.0694C103.001 22.0694 103.643 21.4292 103.643 20.5357V15.8843Z" fill="white"/>
<path d="M109.038 17.0299C109.038 17.1476 109.071 17.2158 109.223 17.2158H110.914C112.892 17.2158 114.177 18.5636 114.177 20.317C114.177 22.1206 112.891 23.4354 110.914 23.4354H107.635C107.466 23.4354 107.382 23.3507 107.382 23.1993V13.272C107.382 13.1034 107.499 13.0359 107.635 13.0359H113.027C113.163 13.0359 113.28 13.1206 113.28 13.2555V14.233C113.28 14.3845 113.179 14.4684 113.027 14.4684H109.224C109.072 14.4684 109.038 14.5359 109.038 14.6543V17.0299H109.038ZM110.812 22.0022C111.015 22.0022 111.184 21.9857 111.37 21.9347C112.08 21.7323 112.537 21.0749 112.537 20.35C112.537 19.4399 112.08 18.85 111.337 18.6986C111.168 18.6648 110.982 18.6483 110.796 18.6483H109.224C109.089 18.6483 109.021 18.6986 109.021 18.8672V21.7998C109.021 21.9347 109.071 22.0022 109.241 22.0022H110.812Z" fill="white"/>
<path d="M122.596 23.2158C122.596 23.3672 122.528 23.4347 122.393 23.4347H121.226C121.074 23.4347 121.005 23.3672 120.99 23.2323L120.787 20.1813C120.736 19.4399 120.499 18.4624 119.146 18.4624C117.996 18.4624 117.371 19.221 117.371 20.266V23.2158C117.371 23.3672 117.304 23.4347 117.169 23.4347H115.901C115.749 23.4347 115.698 23.3672 115.698 23.2323V13.2548C115.698 13.1034 115.765 13.0352 115.934 13.0352H117.168C117.286 13.0352 117.37 13.1026 117.37 13.2376V17.0801C117.37 17.266 117.489 17.1978 117.556 17.1303L120.768 13.1866C120.869 13.0689 120.937 13.0352 121.123 13.0352H122.424C122.627 13.0352 122.678 13.1701 122.576 13.305L119.532 17.0464C119.448 17.1648 119.499 17.2323 119.617 17.2323C119.836 17.2323 120.057 17.2488 120.26 17.2825C121.578 17.5014 122.305 18.5299 122.355 20.0291L122.596 23.2158Z" fill="white"/>
<path d="M130.982 23.1146C131.015 23.2323 131.032 23.4347 130.779 23.4347H129.579C129.427 23.4347 129.325 23.3844 129.291 23.266L128.818 21.3275C128.783 21.2263 128.767 21.1761 128.666 21.1761H125.927C125.792 21.1761 125.792 21.2435 125.758 21.3102L125.302 23.266C125.267 23.3837 125.15 23.4347 125.031 23.4347H123.915C123.662 23.4347 123.611 23.3335 123.662 23.1311L126.148 13.2548C126.181 13.1199 126.265 13.0352 126.452 13.0352H128.142C128.294 13.0352 128.396 13.0524 128.43 13.2376L130.982 23.1146ZM127.769 16.9632L127.329 14.9407C127.313 14.8567 127.245 14.8567 127.227 14.9242L126.806 16.913L126.162 19.6596C126.146 19.778 126.146 19.811 126.263 19.811H128.309C128.411 19.811 128.444 19.778 128.411 19.6596L127.769 16.9632Z" fill="white"/>
<path d="M55.9951 12.5C55.9951 9.04797 54.5913 5.92278 52.3221 3.66117C50.0537 1.3988 46.919 0 43.4573 0C41.8129 0 40.1881 0.331335 38.6715 0.957272C37.1444 1.58771 35.7556 2.5015 34.5925 3.66117L28.354 9.88005L32.7962 14.3088L39.0339 8.08995C39.6332 7.4925 40.3196 7.03448 41.052 6.73163C41.7933 6.42503 42.6099 6.26312 43.4573 6.26312C45.1851 6.26312 46.7491 6.96102 47.8807 8.0892C49.0123 9.21663 49.7123 10.7766 49.7123 12.4992H55.9951V12.5Z" fill="url(#paint0_linear)"/>
<path d="M10.626 12.5C10.626 10.7773 11.3261 9.21737 12.4577 8.08993C13.5893 6.96175 15.1532 6.26384 16.881 6.26384C17.7284 6.26384 18.545 6.42576 19.2871 6.73236C20.0187 7.03521 20.7052 7.49323 21.3044 8.09068L25.7466 3.6619C24.5834 2.50223 23.1939 1.58844 21.6676 0.958004C20.151 0.332068 18.5262 0.000732422 16.8818 0.000732422C13.4201 0.000732422 10.2854 1.39953 8.01697 3.6619C5.74851 5.92352 4.34473 9.0487 4.34473 12.5007L7.48614 15.2623L10.626 12.5Z" fill="#00A14B"/>
<path d="M21.3042 16.9093C20.7049 17.5068 20.0184 17.9648 19.2868 18.2676C18.5447 18.5742 17.7282 18.7362 16.8808 18.7362C16.0793 18.7362 15.3146 18.5967 14.6228 18.3314C13.9161 18.06 13.2566 17.6582 12.6807 17.1402L8.48438 21.7639C9.63477 22.7999 10.9619 23.6057 12.3897 24.1545C13.8334 24.7092 15.3552 25 16.8808 25C18.5252 25 20.15 24.6687 21.6666 24.0428C23.1929 23.4123 24.5824 22.4985 25.7456 21.3389L31.9833 15.12L27.5411 10.6912L21.3042 16.9093Z" fill="url(#paint1_linear)"/>
<path d="M21.3042 8.08992L27.9479 14.7129L34.5924 21.3373L37.6639 20.2001L39.0346 16.9093L32.3901 10.2848L25.7464 3.66113L22.1238 4.62665L21.3042 8.08992Z" fill="#00A14B"/>
<path fill-rule="evenodd" clip-rule="evenodd" d="M7.48511 20.7848L11.2273 16.6424L14.9695 12.5H7.48511H0L3.74293 16.6424L7.48511 20.7848Z" fill="#00A14B"/>
<path d="M55.9949 12.5C55.9949 15.9513 54.5912 19.0765 52.3219 21.3381C50.0535 23.5997 46.9188 24.9992 43.4571 24.9992C41.8127 24.9992 40.1879 24.6679 38.6713 24.042C37.1442 23.4115 35.7555 22.4977 34.5923 21.3381L39.0337 16.9093C39.633 17.5067 40.3195 17.9648 41.0518 18.2676C41.7932 18.5742 42.6097 18.7361 43.4571 18.7361C45.185 18.7361 46.7489 18.0382 47.8805 16.91C49.0121 15.7819 49.7121 14.2226 49.7121 12.5007L53.0393 11.5427L55.9949 12.5Z" fill="#00A14B"/>
<defs>
<linearGradient id="paint0_linear" x1="28.3544" y1="7.15423" x2="55.9953" y2="7.15423" gradientUnits="userSpaceOnUse">
<stop stop-color="#005826"/>
<stop offset="0.6236" stop-color="#00A651"/>
<stop offset="1" stop-color="#00A14B"/>
</linearGradient>
<linearGradient id="paint1_linear" x1="8.48474" y1="17.8445" x2="31.9839" y2="17.8445" gradientUnits="userSpaceOnUse">
<stop stop-color="#54B948"/>
<stop offset="0.3764" stop-color="#00A651"/>
<stop offset="1" stop-color="#005826"/>
</linearGradient>
</defs>
</svg>
